<svg id="Слой_1" data-name="Слой 1" xmlns="http://www.w3.org/2000/svg" viewBox="0 0 276 233"><title>soc</title><path d="M127.21,111.52c1-.86,1.58-1.37,2.18-1.79,7.37-5.2,8.3-12.53,6.86-20.69-1.34-7.63-6.14-11.89-13.29-13.75a43.75,43.75,0,0,0-9.94-1.8c-13.18-.25-26.36-.11-39.54-.25-3,0-4.42.82-4.41,4.14.09,25.91,0,51.81.2,77.71,0,1.28,2.15,3.64,3.32,3.65,14.87.19,29.79.64,44.62-.2s23.78-11.21,23.66-25.3C140.79,123.48,136.71,116.15,127.21,111.52ZM88.84,87.44c7,0,13.79-.43,20.45.13,6.17.52,8.78,4.14,8.43,9.83-.33,5.39-3.85,8.71-9.7,8.83-6.18.13-12.37,0-19.18,0Zm32.51,45.93c-.26,5.76-4,10-10,10.29-7.29.35-14.61.08-22.53.08V122c8.16,0,16-.5,23.8.16C118.62,122.66,121.63,127.32,121.35,133.37Z"/><path d="M187.52,95.21c-13.16-4-27-.51-34.39,9.4-9,12-9.63,25-3.61,38.93,5.57,12.93,17.54,16.55,30.68,15.89,22.33-1.12,25.73-21.43,25.73-21.43l-15.51.64a46.26,46.26,0,0,1-3,3.82c-4.39,4.9-11.44,4.59-17.43,1.46-4.59-2.39-6.49-6.57-5.83-12.52h6.15c10.94,0,21.87.11,32.8-.13,1,0,4-.2,4-.2s.26-2.16.29-2.54C208.4,116.43,203.18,100,187.52,95.21Zm-23.24,24.27c-.56-7.12,3.89-11.64,11.65-12.12s12.91,4.12,13.35,12.12Z"/><path d="M163,85.7q13.78-.09,27.59,0c3.73,0,4.12-2.31,4.14-5.26,0-3.32-1.67-4.16-4.61-4.07q-1.62,0-3.24.06c-3.24,0-6.48,0-9.71,0-3.52,0-7.05.08-10.57,0-1.17,0-2.34,0-3.51-.08-3.42-.14-4.11,1.64-4,4.53S159.52,85.73,163,85.7Z"/></svg>