<svg id="Слой_1" data-name="Слой 1" xmlns="http://www.w3.org/2000/svg" viewBox="0 0 276 233"><title>soc</title><path d="M176.48,146.67c3.24.08,4.89-.76,5.45-4.32,1.33-8.32,3.13-16.57,4.89-25.6h-31.9c.77-7.78.9-14.92,2.36-21.77,1.17-5.52,6.07-8.11,11.48-8.75A131.8,131.8,0,0,1,184,85.44c2.95,0,4.4-.66,4.29-4-.2-6.39.07-12.79-.16-19.18,0-1.39-1.17-3.75-2.14-3.94-14.9-2.87-29.81-4-44.21,2.35-12.58,5.56-18.69,16-20.88,29a151,151,0,0,0-1.39,16.21c-.2,3.32,0,6.66,0,10.56-5.52,0-10.6.09-15.67,0-2.87-.07-4,1-3.9,3.92q.21,11.28,0,22.54c-.06,3.07,1.28,3.84,4,3.77,4.93-.14,9.86,0,15.16,0v53.43h36.66V146.62C162.83,146.62,169.66,146.5,176.48,146.67Z"/></svg>