<svg id="Слой_1" data-name="Слой 1" xmlns="http://www.w3.org/2000/svg" viewBox="0 0 276 233"><title>soc</title><path d="M171.82,58.65c14,2.37,24.71,15.16,25.07,29.31.49,19.22.55,38.46,0,57.67-.48,16.29-14.23,30-30.52,30.49q-28.8.82-57.65,0c-16.09-.46-29.81-14-30.34-30.09q-1-29,0-58.13C78.94,71,93.51,57.7,110.45,57.43c9.06-.14,27.18,0,27.18,0S160.61,56.77,171.82,58.65ZM186,117h0c0-8,.18-15.9,0-23.84-.42-15.06-6.09-23-20.94-23.94-19.46-1.2-39.09-.51-58.59.54-9.48.51-16,7.82-16.34,17.73-.68,19.51-.81,39.09,0,58.59.48,11.39,7.86,17.93,19.4,18.46,16.83.78,33.73,1.37,50.55.74,19-.71,25.4-8,25.93-26.82C186.17,131.31,186,124.15,186,117Z"/><path d="M137.59,147.74a30.6,30.6,0,0,1-30.78-30.9,31,31,0,0,1,30.79-31.1c16.91,0,31,14.46,31,31.64A30.82,30.82,0,0,1,137.59,147.74Zm0-50.2A19.4,19.4,0,0,0,118,117.27a19.19,19.19,0,0,0,19.31,19c11.17,0,19.87-8.52,19.8-19.49A19.08,19.08,0,0,0,137.63,97.54Z"/><path d="M169.39,77.58a7.68,7.68,0,0,1,7.51,7.18,7.22,7.22,0,0,1-7,7.51A7.13,7.13,0,0,1,162.27,85,7.22,7.22,0,0,1,169.39,77.58Z"/></svg>