<svg id="Слой_1" data-name="Слой 1" xmlns="http://www.w3.org/2000/svg" viewBox="0 0 276 233"><title>soc</title><path d="M144.36,105.05c11.08-12.4,23.93-13,37.51-8.37,10.51,3.61,13.88,12.8,14.9,22.67.92,8.86.71,17.85.82,26.79.12,8.78-.08,17.58.08,26.36.06,3.34-1.17,4.57-4.48,4.47-5.75-.17-11.51-.12-17.26,0-2.84.05-4-1.07-4-4,.21-12.13.45-24.27.35-36.4a49.57,49.57,0,0,0-1.7-11.78c-1.43-5.61-4.89-8-10.88-8.18-6.31-.23-11.05,2.22-12.7,7.3a37.5,37.5,0,0,0-1.86,10.75q-.32,18.93,0,37.87c0,3.63-1.12,4.74-4.67,4.58-5.74-.26-11.5-.18-17.25,0-2.83.08-4-.79-4-3.76q.11-36.67,0-73.36c0-3.22,1.42-4.11,4.38-4,5.11.14,10.24.26,15.34,0,4-.23,5.59,1.25,5.08,5.2A22.54,22.54,0,0,0,144.36,105.05Z"/><path d="M78.74,136.33c0-11.83.15-23.67-.08-35.5-.08-3.87,1.25-5,5-4.89,5.58.23,11.19.16,16.78,0,3-.08,4.29.92,4.28,4.12q-.14,36.23,0,72.44c0,3.32-1.13,4.57-4.47,4.45-5.59-.19-11.2-.19-16.79,0-3.47.12-4.79-1-4.74-4.66C78.86,160.32,78.74,148.33,78.74,136.33Z"/><path d="M91.43,56.41a14.69,14.69,0,0,1,14.94,14.73,14.79,14.79,0,0,1-29.58.29A14.54,14.54,0,0,1,91.43,56.41Z"/></svg>