<svg id="Слой_1" data-name="Слой 1" xmlns="http://www.w3.org/2000/svg" viewBox="0 0 276 233"><title>soc</title><path d="M164.26,109.56h37.36V177H80.21V109.66H117.9v16.82c0,4.66.12,9.33,0,14-.08,2.5.86,3.2,3.26,3.19q19.75-.14,39.53,0c2.59,0,3.45-.74,3.41-3.37-.13-9.32-.05-18.65,0-28C164,111.52,164.15,110.72,164.26,109.56Z"/><path d="M163.19,55.64v33.2H118.91a9.32,9.32,0,0,1-.43-1.92c0-9.55,0-19.09,0-28.64,0-1.91.37-3.07,2.66-3.06,13.51.07,27,.05,40.53.08C162.07,55.3,162.87,55.07,163.19,55.64Z"/></svg>