<svg width="853" height="683" viewBox="0 0 853 683" fill="none" xmlns="http://www.w3.org/2000/svg">
<path d="M1.5 5C186.999 51.4724 572.451 -41.4177 476.5 124C416.577 227.307 251.556 138.312 195 243.5C171.449 287.302 211.172 346.697 166 367.5C142.057 378.527 123.847 374.739 98.5 367.5C37.9866 350.219 13.9944 295.336 10.5 232.5C4.02932 116.147 177.731 308.64 292 331.5C357.929 344.689 463 351.5 463 351.5C463 351.5 591.822 343.838 562 315.5C547.316 301.547 532.719 298.767 512.5 300C461.36 303.12 494.214 380.871 463 421.5C429.258 465.421 396.156 477.139 348 504.5C264.945 551.69 167.237 664.437 116.5 583.5C105.575 566.072 94.4223 554.161 98.5 534C105.174 501.003 107.5 504.5 179.5 504.5C251.5 504.5 463 534 512.5 608C562 682 602.97 670.821 632 633C644.2 617.105 646.135 603.527 645.5 583.5C644.299 545.589 625.785 513.75 589 504.5C532.164 490.208 573.5 608 548.5 649C523.5 690 281.253 740.003 348 817.5C395.274 872.387 488.533 773.815 533 831C589.362 903.483 484.038 1079.46 407 1029.5C388.571 1017.55 369.766 1010.43 368.5 988.5C367.553 972.107 377.59 964.293 386.5 950.5C448.059 855.208 673.979 875.055 674.5 988.5C674.81 1055.92 542.564 1068.6 573.5 1128.5C600.266 1180.32 661.188 1161.37 719.5 1160C772.102 1158.76 803.086 1151.31 850.5 1128.5" stroke="white" stroke-width="10"/>
</svg>
